<?xml version="1.0" encoding="UTF-8" standalone="no"?>
<!DOCTYPE svg PUBLIC "-//W3C//DTD SVG 1.1//EN"
 "http://www.w3.org/Graphics/SVG/1.1/DTD/svg11.dtd">
<!-- Generated by graphviz version 2.40.1 (20161225.0304)
 -->
<!-- Title: dependencies Pages: 1 -->
<svg width="2238pt" height="284pt"
 viewBox="0.00 0.00 2238.00 284.00" xmlns="http://www.w3.org/2000/svg" xmlns:xlink="http://www.w3.org/1999/xlink">
<g id="graph0" class="graph" transform="scale(1 1) rotate(0) translate(4 280)">
<title>dependencies</title>
<polygon fill="#ffffff" stroke="transparent" points="-4,4 -4,-280 2234,-280 2234,4 -4,4"/>
<text text-anchor="start" x="1094.0091" y="-42.4" font-family="sans-serif" font-weight="bold" font-size="14.00" fill="#000000">Legend</text>
<polygon fill="#ffffb3" stroke="transparent" points="881,-10 881,-30 901,-30 901,-10 881,-10"/>
<text text-anchor="start" x="904.629" y="-15.4" font-family="sans-serif" font-size="14.00" fill="#000000"> &#160;Declarations</text>
<polygon fill="#8dd3c7" stroke="transparent" points="994,-10 994,-30 1014,-30 1014,-10 994,-10"/>
<text text-anchor="start" x="1017.7251" y="-15.4" font-family="sans-serif" font-size="14.00" fill="#000000"> &#160;Module</text>
<polygon fill="#80b1d3" stroke="transparent" points="1080,-10 1080,-30 1100,-30 1100,-10 1080,-10"/>
<text text-anchor="start" x="1103.7812" y="-15.4" font-family="sans-serif" font-size="14.00" fill="#000000"> &#160;Bootstrap</text>
<polygon fill="#fdb462" stroke="transparent" points="1177,-10 1177,-30 1197,-30 1197,-10 1177,-10"/>
<text text-anchor="start" x="1200.6732" y="-15.4" font-family="sans-serif" font-size="14.00" fill="#000000"> &#160;Providers</text>
<polygon fill="#fb8072" stroke="transparent" points="1273,-10 1273,-30 1293,-30 1293,-10 1273,-10"/>
<text text-anchor="start" x="1296.7258" y="-15.4" font-family="sans-serif" font-size="14.00" fill="#000000"> &#160;Exports</text>
<g id="clust1" class="cluster">
<title>cluster_AppModule</title>
<polygon fill="none" stroke="#000000" stroke-dasharray="1,5" points="8,-70 8,-268 2222,-268 2222,-70 8,-70"/>
</g>
<g id="clust2" class="cluster">
<title>cluster_AppModule_declarations</title>
<polygon fill="none" stroke="#000000" points="168,-78 168,-130 2214,-130 2214,-78 168,-78"/>
</g>
<g id="clust17" class="cluster">
<title>cluster_AppModule_imports</title>
<polygon fill="none" stroke="#000000" points="16,-78 16,-130 160,-130 160,-78 16,-78"/>
</g>
<g id="clust19" class="cluster">
<title>cluster_AppModule_bootstrap</title>
<polygon fill="none" stroke="#000000" points="1053,-208 1053,-260 1177,-260 1177,-208 1053,-208"/>
</g>
<!-- AlertasComponent -->
<g id="node1" class="node">
<title>AlertasComponent</title>
<polygon fill="#ffffb3" stroke="#000000" points="2205.7548,-122 2084.2452,-122 2084.2452,-86 2205.7548,-86 2205.7548,-122"/>
<text text-anchor="middle" x="2145" y="-99.8" font-family="Times,serif" font-size="14.00" fill="#000000">AlertasComponent</text>
</g>
<!-- AppModule -->
<g id="node15" class="node">
<title>AppModule</title>
<polygon fill="#8dd3c7" stroke="#000000" points="1156.6571,-187 1153.6571,-191 1132.6571,-191 1129.6571,-187 1073.3429,-187 1073.3429,-151 1156.6571,-151 1156.6571,-187"/>
<text text-anchor="middle" x="1115" y="-164.8" font-family="Times,serif" font-size="14.00" fill="#000000">AppModule</text>
</g>
<!-- AlertasComponent&#45;&gt;AppModule -->
<g id="edge1" class="edge">
<title>AlertasComponent&#45;&gt;AppModule</title>
<path fill="none" stroke="#000000" d="M2145,-122.3228C2145,-145.6602 2145,-183 2145,-183 2145,-183 1166.9746,-183 1166.9746,-183"/>
<polygon fill="#000000" stroke="#000000" points="1166.9747,-179.5001 1156.9746,-183 1166.9746,-186.5001 1166.9747,-179.5001"/>
</g>
<!-- AppComponent -->
<g id="node2" class="node">
<title>AppComponent</title>
<polygon fill="#ffffb3" stroke="#000000" points="2065.9399,-122 1960.0601,-122 1960.0601,-86 2065.9399,-86 2065.9399,-122"/>
<text text-anchor="middle" x="2013" y="-99.8" font-family="Times,serif" font-size="14.00" fill="#000000">AppComponent</text>
</g>
<!-- AppComponent&#45;&gt;AppModule -->
<g id="edge2" class="edge">
<title>AppComponent&#45;&gt;AppModule</title>
<path fill="none" stroke="#000000" d="M2013,-122.2921C2013,-144.2057 2013,-178 2013,-178 2013,-178 1166.8092,-178 1166.8092,-178"/>
<polygon fill="#000000" stroke="#000000" points="1166.8092,-174.5001 1156.8092,-178 1166.8092,-181.5001 1166.8092,-174.5001"/>
</g>
<!-- CadastroComponent -->
<g id="node3" class="node">
<title>CadastroComponent</title>
<polygon fill="#ffffb3" stroke="#000000" points="1942.594,-122 1811.406,-122 1811.406,-86 1942.594,-86 1942.594,-122"/>
<text text-anchor="middle" x="1877" y="-99.8" font-family="Times,serif" font-size="14.00" fill="#000000">CadastroComponent</text>
</g>
<!-- CadastroComponent&#45;&gt;AppModule -->
<g id="edge3" class="edge">
<title>CadastroComponent&#45;&gt;AppModule</title>
<path fill="none" stroke="#000000" d="M1877,-122.0267C1877,-142.7672 1877,-174 1877,-174 1877,-174 1166.7813,-174 1166.7813,-174"/>
<polygon fill="#000000" stroke="#000000" points="1166.7813,-170.5001 1156.7813,-174 1166.7813,-177.5001 1166.7813,-170.5001"/>
</g>
<!-- DeletePostagemComponent -->
<g id="node4" class="node">
<title>DeletePostagemComponent</title>
<polygon fill="#ffffb3" stroke="#000000" points="1793.3019,-122 1620.6981,-122 1620.6981,-86 1793.3019,-86 1793.3019,-122"/>
<text text-anchor="middle" x="1707" y="-99.8" font-family="Times,serif" font-size="14.00" fill="#000000">DeletePostagemComponent</text>
</g>
<!-- DeletePostagemComponent&#45;&gt;AppModule -->
<g id="edge4" class="edge">
<title>DeletePostagemComponent&#45;&gt;AppModule</title>
<path fill="none" stroke="#000000" d="M1707,-122.1061C1707,-141.3391 1707,-169 1707,-169 1707,-169 1167.1006,-169 1167.1006,-169"/>
<polygon fill="#000000" stroke="#000000" points="1167.1006,-165.5001 1157.1006,-169 1167.1006,-172.5001 1167.1006,-165.5001"/>
</g>
<!-- DeleteTemaComponent -->
<g id="node5" class="node">
<title>DeleteTemaComponent</title>
<polygon fill="#ffffb3" stroke="#000000" points="1602.7366,-122 1453.2634,-122 1453.2634,-86 1602.7366,-86 1602.7366,-122"/>
<text text-anchor="middle" x="1528" y="-99.8" font-family="Times,serif" font-size="14.00" fill="#000000">DeleteTemaComponent</text>
</g>
<!-- DeleteTemaComponent&#45;&gt;AppModule -->
<g id="edge5" class="edge">
<title>DeleteTemaComponent&#45;&gt;AppModule</title>
<path fill="none" stroke="#000000" d="M1528,-122.302C1528,-140.2699 1528,-165 1528,-165 1528,-165 1166.8735,-165 1166.8735,-165"/>
<polygon fill="#000000" stroke="#000000" points="1166.8735,-161.5001 1156.8735,-165 1166.8734,-168.5001 1166.8735,-161.5001"/>
</g>
<!-- FeedComponent -->
<g id="node6" class="node">
<title>FeedComponent</title>
<polygon fill="#ffffb3" stroke="#000000" points="1435.0452,-122 1326.9548,-122 1326.9548,-86 1435.0452,-86 1435.0452,-122"/>
<text text-anchor="middle" x="1381" y="-99.8" font-family="Times,serif" font-size="14.00" fill="#000000">FeedComponent</text>
</g>
<!-- FeedComponent&#45;&gt;AppModule -->
<g id="edge6" class="edge">
<title>FeedComponent&#45;&gt;AppModule</title>
<path fill="none" stroke="#000000" d="M1381,-122.027C1381,-138.3976 1381,-160 1381,-160 1381,-160 1166.8551,-160 1166.8551,-160"/>
<polygon fill="#000000" stroke="#000000" points="1166.8552,-156.5001 1156.8551,-160 1166.8551,-163.5001 1166.8552,-156.5001"/>
</g>
<!-- FooterComponent -->
<g id="node7" class="node">
<title>FooterComponent</title>
<polygon fill="#ffffb3" stroke="#000000" points="1308.8809,-122 1191.1191,-122 1191.1191,-86 1308.8809,-86 1308.8809,-122"/>
<text text-anchor="middle" x="1250" y="-99.8" font-family="Times,serif" font-size="14.00" fill="#000000">FooterComponent</text>
</g>
<!-- FooterComponent&#45;&gt;AppModule -->
<g id="edge7" class="edge">
<title>FooterComponent&#45;&gt;AppModule</title>
<path fill="none" stroke="#000000" d="M1250,-122.1871C1250,-137.1824 1250,-156 1250,-156 1250,-156 1166.9748,-156 1166.9748,-156"/>
<polygon fill="#000000" stroke="#000000" points="1166.9749,-152.5001 1156.9748,-156 1166.9748,-159.5001 1166.9749,-152.5001"/>
</g>
<!-- HomeComponent -->
<g id="node8" class="node">
<title>HomeComponent</title>
<polygon fill="#ffffb3" stroke="#000000" points="1172.5451,-122 1057.4549,-122 1057.4549,-86 1172.5451,-86 1172.5451,-122"/>
<text text-anchor="middle" x="1115" y="-99.8" font-family="Times,serif" font-size="14.00" fill="#000000">HomeComponent</text>
</g>
<!-- HomeComponent&#45;&gt;AppModule -->
<g id="edge8" class="edge">
<title>HomeComponent&#45;&gt;AppModule</title>
<path fill="none" stroke="#000000" d="M1115,-122.1061C1115,-122.1061 1115,-140.991 1115,-140.991"/>
<polygon fill="#000000" stroke="#000000" points="1111.5001,-140.9909 1115,-150.991 1118.5001,-140.991 1111.5001,-140.9909"/>
</g>
<!-- LoginComponent -->
<g id="node9" class="node">
<title>LoginComponent</title>
<polygon fill="#ffffb3" stroke="#000000" points="1039.2758,-122 924.7242,-122 924.7242,-86 1039.2758,-86 1039.2758,-122"/>
<text text-anchor="middle" x="982" y="-99.8" font-family="Times,serif" font-size="14.00" fill="#000000">LoginComponent</text>
</g>
<!-- LoginComponent&#45;&gt;AppModule -->
<g id="edge9" class="edge">
<title>LoginComponent&#45;&gt;AppModule</title>
<path fill="none" stroke="#000000" d="M982,-122.1871C982,-137.1824 982,-156 982,-156 982,-156 1063.2829,-156 1063.2829,-156"/>
<polygon fill="#000000" stroke="#000000" points="1063.2829,-159.5001 1073.2829,-156 1063.2828,-152.5001 1063.2829,-159.5001"/>
</g>
<!-- NavbarComponent -->
<g id="node10" class="node">
<title>NavbarComponent</title>
<polygon fill="#ffffb3" stroke="#000000" points="906.0297,-122 783.9703,-122 783.9703,-86 906.0297,-86 906.0297,-122"/>
<text text-anchor="middle" x="845" y="-99.8" font-family="Times,serif" font-size="14.00" fill="#000000">NavbarComponent</text>
</g>
<!-- NavbarComponent&#45;&gt;AppModule -->
<g id="edge10" class="edge">
<title>NavbarComponent&#45;&gt;AppModule</title>
<path fill="none" stroke="#000000" d="M845,-122.027C845,-138.3976 845,-160 845,-160 845,-160 1063.1087,-160 1063.1087,-160"/>
<polygon fill="#000000" stroke="#000000" points="1063.1088,-163.5001 1073.1087,-160 1063.1087,-156.5001 1063.1088,-163.5001"/>
</g>
<!-- PerfilComponent -->
<g id="node11" class="node">
<title>PerfilComponent</title>
<polygon fill="#ffffb3" stroke="#000000" points="766.4328,-122 653.5672,-122 653.5672,-86 766.4328,-86 766.4328,-122"/>
<text text-anchor="middle" x="710" y="-99.8" font-family="Times,serif" font-size="14.00" fill="#000000">PerfilComponent</text>
</g>
<!-- PerfilComponent&#45;&gt;AppModule -->
<g id="edge11" class="edge">
<title>PerfilComponent&#45;&gt;AppModule</title>
<path fill="none" stroke="#000000" d="M710,-122.302C710,-140.2699 710,-165 710,-165 710,-165 1063.1833,-165 1063.1833,-165"/>
<polygon fill="#000000" stroke="#000000" points="1063.1833,-168.5001 1073.1833,-165 1063.1833,-161.5001 1063.1833,-168.5001"/>
</g>
<!-- PostTemaComponent -->
<g id="node12" class="node">
<title>PostTemaComponent</title>
<polygon fill="#ffffb3" stroke="#000000" points="635.823,-122 498.177,-122 498.177,-86 635.823,-86 635.823,-122"/>
<text text-anchor="middle" x="567" y="-99.8" font-family="Times,serif" font-size="14.00" fill="#000000">PostTemaComponent</text>
</g>
<!-- PostTemaComponent&#45;&gt;AppModule -->
<g id="edge12" class="edge">
<title>PostTemaComponent&#45;&gt;AppModule</title>
<path fill="none" stroke="#000000" d="M567,-122.1061C567,-141.3391 567,-169 567,-169 567,-169 1062.9093,-169 1062.9093,-169"/>
<polygon fill="#000000" stroke="#000000" points="1062.9093,-172.5001 1072.9093,-169 1062.9093,-165.5001 1062.9093,-172.5001"/>
</g>
<!-- PutPostagemComponent -->
<g id="node13" class="node">
<title>PutPostagemComponent</title>
<polygon fill="#ffffb3" stroke="#000000" points="480.4438,-122 325.5562,-122 325.5562,-86 480.4438,-86 480.4438,-122"/>
<text text-anchor="middle" x="403" y="-99.8" font-family="Times,serif" font-size="14.00" fill="#000000">PutPostagemComponent</text>
</g>
<!-- PutPostagemComponent&#45;&gt;AppModule -->
<g id="edge13" class="edge">
<title>PutPostagemComponent&#45;&gt;AppModule</title>
<path fill="none" stroke="#000000" d="M403,-122.0267C403,-142.7672 403,-174 403,-174 403,-174 1063.1193,-174 1063.1193,-174"/>
<polygon fill="#000000" stroke="#000000" points="1063.1193,-177.5001 1073.1193,-174 1063.1193,-170.5001 1063.1193,-177.5001"/>
</g>
<!-- PutTemaComponent -->
<g id="node14" class="node">
<title>PutTemaComponent</title>
<polygon fill="#ffffb3" stroke="#000000" points="307.8781,-122 176.1219,-122 176.1219,-86 307.8781,-86 307.8781,-122"/>
<text text-anchor="middle" x="242" y="-99.8" font-family="Times,serif" font-size="14.00" fill="#000000">PutTemaComponent</text>
</g>
<!-- PutTemaComponent&#45;&gt;AppModule -->
<g id="edge14" class="edge">
<title>PutTemaComponent&#45;&gt;AppModule</title>
<path fill="none" stroke="#000000" d="M242,-122.2921C242,-144.2057 242,-178 242,-178 242,-178 1063.1875,-178 1063.1875,-178"/>
<polygon fill="#000000" stroke="#000000" points="1063.1875,-181.5001 1073.1875,-178 1063.1875,-174.5001 1063.1875,-181.5001"/>
</g>
<!-- AppComponent  -->
<g id="node17" class="node">
<title>AppComponent </title>
<polygon fill="#80b1d3" stroke="#000000" points="1169.439,-252 1060.561,-252 1060.561,-216 1169.439,-216 1169.439,-252"/>
<text text-anchor="middle" x="1115" y="-229.8" font-family="Times,serif" font-size="14.00" fill="#000000">AppComponent </text>
</g>
<!-- AppModule&#45;&gt;AppComponent  -->
<g id="edge16" class="edge">
<title>AppModule&#45;&gt;AppComponent </title>
<path fill="none" stroke="#000000" stroke-dasharray="1,5" d="M1115,-187.1061C1115,-187.1061 1115,-205.991 1115,-205.991"/>
<polygon fill="#000000" stroke="#000000" points="1111.5001,-205.9909 1115,-215.991 1118.5001,-205.991 1111.5001,-205.9909"/>
</g>
<!-- AppRoutingModule -->
<g id="node16" class="node">
<title>AppRoutingModule</title>
<polygon fill="#8dd3c7" stroke="#000000" points="152.2744,-122 149.2744,-126 128.2744,-126 125.2744,-122 23.7256,-122 23.7256,-86 152.2744,-86 152.2744,-122"/>
<text text-anchor="middle" x="88" y="-99.8" font-family="Times,serif" font-size="14.00" fill="#000000">AppRoutingModule</text>
</g>
<!-- AppRoutingModule&#45;&gt;AppModule -->
<g id="edge15" class="edge">
<title>AppRoutingModule&#45;&gt;AppModule</title>
<path fill="none" stroke="#000000" d="M88,-122.3228C88,-145.6602 88,-183 88,-183 88,-183 1063.1476,-183 1063.1476,-183"/>
<polygon fill="#000000" stroke="#000000" points="1063.1477,-186.5001 1073.1476,-183 1063.1476,-179.5001 1063.1477,-186.5001"/>
</g>
</g>
</svg>
